<svg xmlns="http://www.w3.org/2000/svg" width="209" height="166"><defs><style>.b{isolation:isolate}.c{fill:#adb4d3}.e{fill:#3948a3}.e,.f,.i,.j,.l,.m{fill-rule:evenodd}.f{fill:#383d89}.i{fill:#e4eef3}.j{fill:#fff}.l{fill:#282723}.m{fill:#b6c2c9}</style></defs><g opacity=".5"><g class="b"><g class="b"><path class="c" d="M64.91 15.65h1.34v.61H62.7v-.61h1.46v-3.53h-1.42v-.61h2.17zm-.19-6.2a.56.56 0 0 1 0 .76.58.58 0 0 1-.41.15.53.53 0 0 1-.39-.15.56.56 0 0 1 0-.76.53.53 0 0 1 .39-.15.58.58 0 0 1 .41.15zM71.7 11.7a1.57 1.57 0 0 1 .25 1v3.53h-.69v-3.38a2.45 2.45 0 0 0-.06-.67.31.31 0 0 0-.31-.17 1 1 0 0 0-.83.56v3.69h-.7v-3.41a2.45 2.45 0 0 0-.06-.67.31.31 0 0 0-.3-.18 1 1 0 0 0-.83.56v3.69h-.69v-4.74h.58l.06.56a2 2 0 0 1 .45-.49 1 1 0 0 1 .57-.17.82.82 0 0 1 .86.59 1.67 1.67 0 0 1 .46-.46 1 1 0 0 1 .58-.17.88.88 0 0 1 .66.33zM77.15 13.88a3.12 3.12 0 0 1-.46 1.8 1.56 1.56 0 0 1-1.36.67 1.61 1.61 0 0 1-1.26-.54v2.26l-.76.09v-6.65H74l.06.67a1.79 1.79 0 0 1 .63-.57 1.62 1.62 0 0 1 .78-.2c1.11 0 1.68.83 1.68 2.47zm-2.56-1.64a2.23 2.23 0 0 0-.52.54v2.35a1.32 1.32 0 0 0 .47.44 1.29 1.29 0 0 0 .62.15 1 1 0 0 0 .88-.45 2.57 2.57 0 0 0 .29-1.39 2.88 2.88 0 0 0-.26-1.4.88.88 0 0 0-.82-.46 1.14 1.14 0 0 0-.66.22zM82 12.07a2.86 2.86 0 0 1 .52 1.81 2.83 2.83 0 0 1-.53 1.8 2 2 0 0 1-3 0 2.76 2.76 0 0 1-.53-1.8 2.85 2.85 0 0 1 .53-1.8 1.84 1.84 0 0 1 1.52-.68 1.82 1.82 0 0 1 1.49.67zm-2.44.42a2.6 2.6 0 0 0-.3 1.4 2.56 2.56 0 0 0 .3 1.39 1.17 1.17 0 0 0 1.84 0 2.58 2.58 0 0 0 .3-1.4 2.56 2.56 0 0 0-.3-1.39 1 1 0 0 0-.91-.46 1.07 1.07 0 0 0-.9.46zM88 11.51l-.11 1.61h-.61v-1q-1.11 0-1.56 1.56v2h1v.59h-2.56v-.59h.74V12.1h-.74v-.59h1.31l.14 1.13a2.44 2.44 0 0 1 .69-.92 1.66 1.66 0 0 1 1-.31 2.94 2.94 0 0 1 .7.1zM92.69 16.26a2.72 2.72 0 0 1-.69.09 1.69 1.69 0 0 1-1.17-.35 1.33 1.33 0 0 1-.42-1v-2.89h-1.09v-.6h1.09v-1.07l.76-.09v1.16h1.64l-.1.6h-1.54v2.81a.82.82 0 0 0 .21.61 1 1 0 0 0 .7.19 1.87 1.87 0 0 0 .9-.22l.3.51a1.87 1.87 0 0 1-.59.25zM103.47 9.33c-.8 0-1.17.24-1.13.72l.18 1.85a1.42 1.42 0 0 1 0 .23 1 1 0 0 1-.2.66 1 1 0 0 1-.64.31 1.13 1.13 0 0 1 .64.31.9.9 0 0 1 .2.66 1.63 1.63 0 0 1 0 .24l-.18 1.85a.52.52 0 0 0 .27.55 1.85 1.85 0 0 0 .86.17v.6a2.69 2.69 0 0 1-1.32-.28 1 1 0 0 1-.52-.94v-.18l.19-1.71a1 1 0 0 0 0-.19.64.64 0 0 0-.3-.58 2.08 2.08 0 0 0-1.08-.19v-.61a2.08 2.08 0 0 0 1.08-.19.62.62 0 0 0 .3-.58.86.86 0 0 0 0-.17l-.19-1.72v-.18a1 1 0 0 1 .52-1 2.69 2.69 0 0 1 1.32-.28zM114.68 10.68h-1.37v5h1.37v.63h-3.54v-.63h1.37v-5h-1.37v-.63h3.54zM120.6 11.73a2.21 2.21 0 0 1-.59.11h-.8a1.26 1.26 0 0 1 .83 1.2 1.53 1.53 0 0 1-.48 1.17 1.86 1.86 0 0 1-1.3.44 2.16 2.16 0 0 1-.72-.1.87.87 0 0 0-.17.21.47.47 0 0 0-.07.25c0 .27.21.41.63.41h.86a2.15 2.15 0 0 1 .85.16 1.49 1.49 0 0 1 .6.47 1 1 0 0 1 .22.65 1.21 1.21 0 0 1-.59 1.07 3.11 3.11 0 0 1-1.67.37 2.63 2.63 0 0 1-1.55-.34 1.28 1.28 0 0 1-.45-1.09h.69a.88.88 0 0 0 .11.47.71.71 0 0 0 .4.27 3.23 3.23 0 0 0 .8.08 2.48 2.48 0 0 0 1.13-.2.63.63 0 0 0 .37-.58.55.55 0 0 0-.3-.5 1.46 1.46 0 0 0-.77-.18h-.84a1.35 1.35 0 0 1-.89-.25.8.8 0 0 1-.31-.65.82.82 0 0 1 .14-.44 1.15 1.15 0 0 1 .38-.38 1.49 1.49 0 0 1-.6-.53 1.55 1.55 0 0 1-.19-.78 1.53 1.53 0 0 1 .24-.85 1.68 1.68 0 0 1 .67-.59 2.17 2.17 0 0 1 1-.21 6.29 6.29 0 0 0 1.23-.09 5 5 0 0 0 .93-.3zm-3.23.53a1.28 1.28 0 0 0 0 1.61 1.1 1.1 0 0 0 .84.3 1 1 0 0 0 .77-.3 1.14 1.14 0 0 0 .26-.82.94.94 0 0 0-1-1.08 1.13 1.13 0 0 0-.87.29zM121.51 16.26l1.75-2.51-1.54-2.24h.9l1.1 1.77 1.11-1.77h.87l-1.54 2.21 1.75 2.54H125l-1.31-2-1.3 2zM127.46 15.54a3.78 3.78 0 0 1-.65-2.39 3.9 3.9 0 0 1 .36-1.75 2.61 2.61 0 0 1 1-1.08 2.44 2.44 0 0 1 1.29-.36 2.58 2.58 0 0 1 1 .16 2.53 2.53 0 0 1 .78.52l-.47.49a1.82 1.82 0 0 0-.6-.39 1.7 1.7 0 0 0-.69-.13 1.54 1.54 0 0 0-1.26.61 3 3 0 0 0-.51 1.93 3.61 3.61 0 0 0 .41 1.94 1.41 1.41 0 0 0 1.24.61 2.33 2.33 0 0 0 1.18-.3v-1.88h-1.22l-.09-.66h2.09v3a4.55 4.55 0 0 1-.94.41 4 4 0 0 1-1.08.13 2.15 2.15 0 0 1-1.84-.86zM136.58 11.51l-.11 1.61h-.61v-1h-.05c-.73 0-1.25.52-1.55 1.56v2h1v.59h-2.47v-.59h.75V12.1h-.75v-.59h1.32l.14 1.13a2.34 2.34 0 0 1 .69-.92 1.66 1.66 0 0 1 1-.31 2.94 2.94 0 0 1 .64.1zM140.51 15.65h1.33v.61h-3.54v-.61h1.46v-3.53h-1.42v-.61h2.17zm-.2-6.2a.53.53 0 0 1 0 .76.54.54 0 0 1-.4.15.53.53 0 0 1-.39-.15.56.56 0 0 1 0-.76.53.53 0 0 1 .39-.15.54.54 0 0 1 .4.15zM147.11 9.6v6.66h-.67l-.07-.63a1.7 1.7 0 0 1-.6.54 1.59 1.59 0 0 1-.74.18 1.52 1.52 0 0 1-1.35-.65 3.09 3.09 0 0 1-.46-1.81 3.44 3.44 0 0 1 .23-1.28 2.08 2.08 0 0 1 .64-.88 1.7 1.7 0 0 1 2.26.25V9.51zm-2.75 2.89a2.54 2.54 0 0 0-.32 1.4 2.74 2.74 0 0 0 .29 1.39 1 1 0 0 0 .85.47 1.41 1.41 0 0 0 1.17-.75v-2.36a1.47 1.47 0 0 0-.47-.46 1.29 1.29 0 0 0-.61-.16 1 1 0 0 0-.91.47zM153.14 16.26h-.76l-.19-3.26c0-.57-.05-1.32-.05-2.25l-1 4.37h-.79l-1.11-4.37V13l-.24 3.26h-.74l.35-6.21h1.09l1 4.25 1-4.25h1.1zM157.63 12.07a2.86 2.86 0 0 1 .52 1.81 2.89 2.89 0 0 1-.53 1.8 2 2 0 0 1-3 0 2.76 2.76 0 0 1-.53-1.8 2.85 2.85 0 0 1 .53-1.8 2 2 0 0 1 3 0zm-2.44.42a2.6 2.6 0 0 0-.3 1.4 2.56 2.56 0 0 0 .3 1.39 1.17 1.17 0 0 0 1.84 0 2.58 2.58 0 0 0 .3-1.4 2.56 2.56 0 0 0-.3-1.39 1 1 0 0 0-.91-.46 1.07 1.07 0 0 0-.93.46zM163.31 9.6v6.66h-.67l-.07-.63a1.7 1.7 0 0 1-.6.54 1.56 1.56 0 0 1-.74.18 1.52 1.52 0 0 1-1.35-.65 3.09 3.09 0 0 1-.46-1.81 3.44 3.44 0 0 1 .23-1.28 2.08 2.08 0 0 1 .64-.88 1.7 1.7 0 0 1 2.26.25V9.51zm-2.75 2.89a2.54 2.54 0 0 0-.32 1.4 2.74 2.74 0 0 0 .29 1.39 1 1 0 0 0 .85.47 1.41 1.41 0 0 0 1.17-.75v-2.36a1.47 1.47 0 0 0-.47-.46 1.29 1.29 0 0 0-.61-.16 1 1 0 0 0-.91.47zM165.87 14.88a1 1 0 0 0 .19.67.79.79 0 0 0 .61.21 1.35 1.35 0 0 0 .73-.22 1.58 1.58 0 0 0 .6-.54v-3.49h.76v4.75h-.65l-.06-.64a2 2 0 0 1-.69.54 1.9 1.9 0 0 1-.83.19 1.35 1.35 0 0 1-1-.36 1.43 1.43 0 0 1-.35-1v-3.48h.76zM172.36 15.09c0 .42.26.63.79.63a2.18 2.18 0 0 0 .79-.16l.2.55a2.39 2.39 0 0 1-1.13.24 1.44 1.44 0 0 1-1-.35 1.23 1.23 0 0 1-.38-.95v-4.84h-1.46V9.6h2.21zM176.92 15.33a1.31 1.31 0 0 0 1 .39 1.87 1.87 0 0 0 .64-.1 2.68 2.68 0 0 0 .63-.32l.35.51a2.75 2.75 0 0 1-.76.4 2.58 2.58 0 0 1-.86.14 2 2 0 0 1-1.6-.67 2.65 2.65 0 0 1-.57-1.79 3.08 3.08 0 0 1 .25-1.28 2.16 2.16 0 0 1 .72-.88 1.92 1.92 0 0 1 1.09-.32 1.75 1.75 0 0 1 1.42.63 2.61 2.61 0 0 1 .52 1.7v.41h-3.19a1.78 1.78 0 0 0 .36 1.18zm0-2.9a1.85 1.85 0 0 0-.39 1.14H179a1.86 1.86 0 0 0-.33-1.14 1 1 0 0 0-.86-.4 1.1 1.1 0 0 0-.91.4zM188.47 9a1 1 0 0 1 .52 1v.18l-.19 1.72a.53.53 0 0 0 0 .14.66.66 0 0 0 .32.6 2.1 2.1 0 0 0 1.06.2v.61a2.15 2.15 0 0 0-1.07.2.67.67 0 0 0-.31.61.66.66 0 0 0 0 .15l.19 1.71v.18a1 1 0 0 1-.52.94 2.69 2.69 0 0 1-1.32.28v-.6a1.77 1.77 0 0 0 .85-.17.51.51 0 0 0 .28-.55l-.18-1.85a1.36 1.36 0 0 1 0-.24.9.9 0 0 1 .22-.67 1.38 1.38 0 0 1 .73-.29 1.27 1.27 0 0 1-.71-.32.87.87 0 0 1-.23-.67 1.35 1.35 0 0 1 0-.22l.18-1.85c0-.48-.33-.72-1.13-.72v-.6a2.69 2.69 0 0 1 1.31.23z"/></g></g><g class="b"><g class="b"><path class="c" d="M81.91 21.77l-.24.56a2.54 2.54 0 0 0-1-.19q-1 0-1 .78v1h1.6l-.08.6h-1.53v3.78h-.77v-3.82h-1.12v-.6h1.12v-.94a1.27 1.27 0 0 1 .49-1 1.88 1.88 0 0 1 1.24-.4 3.34 3.34 0 0 1 1.29.23zM87.09 23.51L87 25.12h-.61v-1q-1.1 0-1.56 1.56v2h1v.59h-2.56v-.59H84V24.1h-.74v-.59h1.31l.15 1.13a2.43 2.43 0 0 1 .68-.92 1.67 1.67 0 0 1 1-.31 2.94 2.94 0 0 1 .69.1zM91.94 24.07a2.87 2.87 0 0 1 .53 1.81 2.84 2.84 0 0 1-.54 1.8 2 2 0 0 1-3 0 2.82 2.82 0 0 1-.53-1.8 2.8 2.8 0 0 1 .54-1.8 2 2 0 0 1 3 0zm-2.44.42a2.6 2.6 0 0 0-.3 1.4 2.56 2.56 0 0 0 .3 1.39 1 1 0 0 0 .92.45 1.05 1.05 0 0 0 .93-.45 2.58 2.58 0 0 0 .3-1.4 2.56 2.56 0 0 0-.3-1.39 1.05 1.05 0 0 0-.92-.46 1.07 1.07 0 0 0-.93.46zM97.81 23.7a1.57 1.57 0 0 1 .25 1v3.53h-.69v-3.38a2.45 2.45 0 0 0-.06-.67A.3.3 0 0 0 97 24a1 1 0 0 0-.83.56v3.69h-.7v-3.4a2.45 2.45 0 0 0-.06-.67.3.3 0 0 0-.31-.18 1 1 0 0 0-.83.56v3.69h-.69v-4.74h.59v.56a2 2 0 0 1 .46-.49.94.94 0 0 1 .57-.17.81.81 0 0 1 .85.63 1.82 1.82 0 0 1 .46-.46 1 1 0 0 1 .59-.17.85.85 0 0 1 .71.29zM106.15 21.6h.95l-.1 2.34h-.67zM112.63 27.65H114v.61h-3.55v-.61h1.46v-3.53h-1.41v-.61h2.17zm-.2-6.2a.56.56 0 0 1 0 .76.56.56 0 0 1-.41.15.53.53 0 0 1-.39-.15.56.56 0 0 1 0-.76.53.53 0 0 1 .39-.15.56.56 0 0 1 .41.15zM119.71 23.73a2.21 2.21 0 0 1-.59.11h-.8a1.26 1.26 0 0 1 .83 1.2 1.53 1.53 0 0 1-.48 1.17 1.84 1.84 0 0 1-1.3.44 2.09 2.09 0 0 1-.71-.1.72.72 0 0 0-.18.21.59.59 0 0 0-.07.25c0 .27.21.41.63.41h.86a2.11 2.11 0 0 1 .85.16 1.42 1.42 0 0 1 .6.47 1 1 0 0 1 .22.65 1.19 1.19 0 0 1-.59 1.07 3.11 3.11 0 0 1-1.67.37 2.6 2.6 0 0 1-1.54-.34 1.28 1.28 0 0 1-.45-1.09h.68a.88.88 0 0 0 .11.47.71.71 0 0 0 .4.27 3.28 3.28 0 0 0 .8.08 2.48 2.48 0 0 0 1.13-.2.61.61 0 0 0 .37-.58.55.55 0 0 0-.3-.5 1.45 1.45 0 0 0-.76-.18h-.85a1.35 1.35 0 0 1-.89-.25.83.83 0 0 1-.31-.65.82.82 0 0 1 .14-.44 1.09 1.09 0 0 1 .39-.38 1.49 1.49 0 0 1-.6-.53 1.46 1.46 0 0 1-.2-.78 1.53 1.53 0 0 1 .24-.85 1.68 1.68 0 0 1 .67-.59 2.17 2.17 0 0 1 1-.21 6.48 6.48 0 0 0 1.24-.09 5.15 5.15 0 0 0 .92-.3zm-3.22.53a1.1 1.1 0 0 0-.28.8 1.14 1.14 0 0 0 .28.81 1.1 1.1 0 0 0 .84.3 1 1 0 0 0 .77-.3 1.14 1.14 0 0 0 .27-.82.94.94 0 0 0-1.06-1.05 1.09 1.09 0 0 0-.82.26zM121 23.51h.65l.06.67a1.87 1.87 0 0 1 .71-.56 1.91 1.91 0 0 1 .86-.21c.89 0 1.33.47 1.33 1.41v3.44h-.75v-2.88a4.22 4.22 0 0 0-.06-.82.72.72 0 0 0-.23-.41.85.85 0 0 0-.52-.13 1.22 1.22 0 0 0-.73.23 2 2 0 0 0-.56.56v3.45H121zM128.83 27.65h1.33v.61h-3.55v-.61h1.46v-3.53h-1.41v-.61h2.17zm-.2-6.2a.56.56 0 0 1 0 .76.56.56 0 0 1-.41.15.53.53 0 0 1-.39-.15.56.56 0 0 1 0-.76.53.53 0 0 1 .39-.15.56.56 0 0 1 .41.15zM135 28.26a2.71 2.71 0 0 1-.68.09 1.65 1.65 0 0 1-1.17-.39 1.31 1.31 0 0 1-.43-1v-2.85h-1.09v-.6h1.09v-1.07l.76-.09v1.16h1.64l-.09.6h-1.55v2.81a.82.82 0 0 0 .21.61 1 1 0 0 0 .7.19 1.94 1.94 0 0 0 .91-.22l.29.51a1.87 1.87 0 0 1-.59.25zM138.23 27.33a1.31 1.31 0 0 0 1 .39 1.93 1.93 0 0 0 .65-.1 2.83 2.83 0 0 0 .62-.32l.35.51a2.62 2.62 0 0 1-.76.4 2.54 2.54 0 0 1-.86.14 2 2 0 0 1-1.6-.67 2.65 2.65 0 0 1-.57-1.79 3.08 3.08 0 0 1 .26-1.28 2.06 2.06 0 0 1 .71-.88 1.94 1.94 0 0 1 1.09-.32 1.73 1.73 0 0 1 1.42.63 2.56 2.56 0 0 1 .52 1.7v.41h-3.18a1.73 1.73 0 0 0 .35 1.18zm0-2.9a1.78 1.78 0 0 0-.38 1.14h2.46a1.8 1.8 0 0 0-.32-1.14 1.06 1.06 0 0 0-.87-.4 1.12 1.12 0 0 0-.91.4zM143.38 26.88a1 1 0 0 0 .19.67.79.79 0 0 0 .61.21 1.35 1.35 0 0 0 .73-.22 1.7 1.7 0 0 0 .56-.54v-3.49h.75v4.75h-.65l-.06-.64a1.85 1.85 0 0 1-.69.54 1.9 1.9 0 0 1-.83.19 1.35 1.35 0 0 1-1-.36 1.43 1.43 0 0 1-.35-1v-3.48h.76zM150.42 27.65h1.34v.61h-3.55v-.61h1.46v-3.53h-1.41v-.61h2.16zm-.19-6.2a.56.56 0 0 1 0 .76.58.58 0 0 1-.41.15.53.53 0 0 1-.39-.15.56.56 0 0 1 0-.76.53.53 0 0 1 .39-.15.58.58 0 0 1 .41.15zM153.42 25.11H157v.65h-3.6zM162.31 27.63a.51.51 0 0 0 .3.19l-.19.54a.92.92 0 0 1-.86-.67 1.64 1.64 0 0 1-.64.49 2 2 0 0 1-.85.17A1.56 1.56 0 0 1 159 28a1.43 1.43 0 0 1-.41-1.06 1.3 1.3 0 0 1 .57-1.13 2.94 2.94 0 0 1 1.65-.39h.7V25a.87.87 0 0 0-.29-.73 1.4 1.4 0 0 0-.84-.22 3.59 3.59 0 0 0-1.23.25l-.21-.58a4.66 4.66 0 0 1 1.56-.3 1.91 1.91 0 0 1 1.32.41 1.43 1.43 0 0 1 .45 1.12v2.28a.73.73 0 0 0 .04.4zm-1.38 0a1.49 1.49 0 0 0 .53-.5V25.9h-.69a1.79 1.79 0 0 0-1.08.25.85.85 0 0 0-.34.74.8.8 0 0 0 .91.9 1.32 1.32 0 0 0 .67-.18zM164.22 23.51h.65l.06.67a1.87 1.87 0 0 1 .71-.56 1.91 1.91 0 0 1 .86-.21c.89 0 1.33.47 1.33 1.41v3.44h-.76v-2.88a5.46 5.46 0 0 0 0-.82.72.72 0 0 0-.23-.41.86.86 0 0 0-.53-.13 1.21 1.21 0 0 0-.72.23 2 2 0 0 0-.56.56v3.45h-.76zM173.71 23.73a2.21 2.21 0 0 1-.59.11h-.8a1.26 1.26 0 0 1 .83 1.2 1.53 1.53 0 0 1-.48 1.17 1.86 1.86 0 0 1-1.3.44 2.09 2.09 0 0 1-.71-.1.72.72 0 0 0-.18.21.59.59 0 0 0-.07.25c0 .27.21.41.63.41h.86a2.15 2.15 0 0 1 .85.16 1.42 1.42 0 0 1 .6.47 1 1 0 0 1 .22.65 1.19 1.19 0 0 1-.59 1.07 3.11 3.11 0 0 1-1.67.37 2.6 2.6 0 0 1-1.54-.34 1.28 1.28 0 0 1-.45-1.09h.68a.88.88 0 0 0 .11.47.71.71 0 0 0 .4.27 3.28 3.28 0 0 0 .8.08 2.48 2.48 0 0 0 1.13-.2.61.61 0 0 0 .37-.58.55.55 0 0 0-.3-.5 1.45 1.45 0 0 0-.76-.18h-.85a1.35 1.35 0 0 1-.89-.25.8.8 0 0 1-.31-.65.82.82 0 0 1 .14-.44 1.15 1.15 0 0 1 .38-.38 1.53 1.53 0 0 1-.59-.53 1.46 1.46 0 0 1-.2-.78 1.53 1.53 0 0 1 .24-.85 1.68 1.68 0 0 1 .67-.59 2.17 2.17 0 0 1 1-.21 6.48 6.48 0 0 0 1.24-.09 5.15 5.15 0 0 0 .92-.3zm-3.22.53a1.1 1.1 0 0 0-.28.8 1.14 1.14 0 0 0 .28.81 1.1 1.1 0 0 0 .84.3 1 1 0 0 0 .77-.3 1.14 1.14 0 0 0 .27-.82.94.94 0 0 0-1.06-1.05 1.09 1.09 0 0 0-.82.26zM175.78 26.88a1 1 0 0 0 .19.67.79.79 0 0 0 .61.21 1.35 1.35 0 0 0 .73-.22 1.7 1.7 0 0 0 .56-.54v-3.49h.75v4.75H178l-.06-.64a1.93 1.93 0 0 1-.69.54 1.9 1.9 0 0 1-.83.19 1.35 1.35 0 0 1-1-.36 1.43 1.43 0 0 1-.35-1v-3.48h.76zM182.28 27.09q0 .63.78.63a2.18 2.18 0 0 0 .79-.16l.2.55a2.39 2.39 0 0 1-1.13.24 1.44 1.44 0 0 1-1-.35 1.23 1.23 0 0 1-.38-.95v-4.84h-1.46v-.61h2.22zM189.31 27.63a.51.51 0 0 0 .3.19l-.19.54a.92.92 0 0 1-.86-.67 1.64 1.64 0 0 1-.64.49 2 2 0 0 1-.85.17A1.56 1.56 0 0 1 186 28a1.43 1.43 0 0 1-.41-1.06 1.3 1.3 0 0 1 .57-1.13 2.94 2.94 0 0 1 1.65-.39h.7V25a.87.87 0 0 0-.29-.73 1.4 1.4 0 0 0-.84-.22 3.59 3.59 0 0 0-1.23.25l-.21-.58a4.66 4.66 0 0 1 1.56-.3 1.91 1.91 0 0 1 1.32.41 1.43 1.43 0 0 1 .45 1.12v2.28a.73.73 0 0 0 .04.4zm-1.38 0a1.49 1.49 0 0 0 .53-.5V25.9h-.69a1.79 1.79 0 0 0-1.08.25.85.85 0 0 0-.34.74.8.8 0 0 0 .91.9 1.32 1.32 0 0 0 .67-.18zM195.09 23.51l-.09 1.61h-.61v-1c-.74 0-1.25.52-1.56 1.56v2h1v.59h-2.46v-.59h.63V24.1h-.74v-.59h1.31l.14 1.13a2.55 2.55 0 0 1 .69-.92 1.67 1.67 0 0 1 1-.31 2.94 2.94 0 0 1 .69.1zM197.94 21.6h1l-.15 2.34h-.66zM204.33 27a.72.72 0 0 1 .21.52 1.83 1.83 0 0 1-.17.71l-.74 1.68H203l.43-1.79a.61.61 0 0 1-.21-.26.81.81 0 0 1-.08-.34.72.72 0 0 1 .21-.52.74.74 0 0 1 1 0zm0-3.1a.69.69 0 0 1 .21.51.73.73 0 0 1-.21.52.69.69 0 0 1-.52.21.69.69 0 0 1-.51-.21.73.73 0 0 1-.21-.52.72.72 0 0 1 .72-.72.69.69 0 0 1 .52.18z"/></g></g><g class="b"><g class="b"><path class="c" d="M66.31 47a5.52 5.52 0 0 1 .57 2.7 14.2 14.2 0 0 1-.1 1.93 2.31 2.31 0 0 1-.4 1.09 1 1 0 0 1-.82.36.87.87 0 0 1-.59-.21 1.43 1.43 0 0 1-.36-.52 1.28 1.28 0 0 1-.11-.55 1.25 1.25 0 0 1-1.23.88 1.1 1.1 0 0 1-1-.55 3 3 0 0 1-.33-1.51 2.72 2.72 0 0 1 .46-1.74 1.54 1.54 0 0 1 1.31-.58 2.51 2.51 0 0 1 .62.07 2.87 2.87 0 0 1 .64.26v2.66a1.86 1.86 0 0 0 .17.93.52.52 0 0 0 .46.25q.27 0 .39-.33a2.72 2.72 0 0 0 .14-.84v-1.45a8.29 8.29 0 0 0-.13-1.72 2 2 0 0 0-.6-1.13 1.7 1.7 0 0 0-1.22-.41 3 3 0 0 0-1 .18 3.2 3.2 0 0 0-1 .65l-.44-.51a4.07 4.07 0 0 1 1.22-.75 3.5 3.5 0 0 1 1.21-.16 2.22 2.22 0 0 1 2.14 1zm-3.47 2.28a3 3 0 0 0-.23 1.34 2.94 2.94 0 0 0 .16 1.1.56.56 0 0 0 .55.39.77.77 0 0 0 .47-.13.71.71 0 0 0 .27-.28 3.33 3.33 0 0 0 .19-.38V49a1.41 1.41 0 0 0-.58-.13.89.89 0 0 0-.83.4zM68.38 46.81s0 .3.05.78.06 1 .06 1.56v3.11h-.73v-6.21h1.06L71 51.53v-.33q-.09-1.11-.09-2v-3.15h.73v6.21h-1.07zM77.4 47.73a2.21 2.21 0 0 1-.59.11h-.8a1.26 1.26 0 0 1 .83 1.2 1.53 1.53 0 0 1-.48 1.17 1.86 1.86 0 0 1-1.3.44 2.06 2.06 0 0 1-.71-.1.72.72 0 0 0-.18.21.47.47 0 0 0-.07.25c0 .27.21.41.63.41h.86a2.15 2.15 0 0 1 .85.16 1.49 1.49 0 0 1 .6.47 1 1 0 0 1 .22.65 1.21 1.21 0 0 1-.59 1.07 3.11 3.11 0 0 1-1.67.37 2.63 2.63 0 0 1-1.55-.34 1.28 1.28 0 0 1-.45-1.07h.69a.88.88 0 0 0 .11.47.71.71 0 0 0 .4.27 3.23 3.23 0 0 0 .8.08 2.48 2.48 0 0 0 1.13-.2.61.61 0 0 0 .37-.58.55.55 0 0 0-.3-.5 1.46 1.46 0 0 0-.77-.18h-.84a1.35 1.35 0 0 1-.89-.25.8.8 0 0 1-.31-.65.82.82 0 0 1 .14-.44 1.15 1.15 0 0 1 .38-.38 1.49 1.49 0 0 1-.6-.53 1.55 1.55 0 0 1-.19-.78 1.53 1.53 0 0 1 .24-.85 1.68 1.68 0 0 1 .67-.59 2.17 2.17 0 0 1 1-.21 6.29 6.29 0 0 0 1.23-.09 5 5 0 0 0 .93-.3zm-3.23.53a1.32 1.32 0 0 0 0 1.61 1.1 1.1 0 0 0 .84.3 1 1 0 0 0 .77-.3 1.14 1.14 0 0 0 .27-.82A1 1 0 0 0 75 48a1.13 1.13 0 0 0-.83.26zM82.94 52.26h-.76L82 49q-.06-.85-.06-2.25l-1 4.37h-.79L79 46.77v2.25l-.16 3.24h-.74l.35-6.21h1.09l1 4.25 1-4.25h1.1zM87.43 48.07a2.86 2.86 0 0 1 .57 1.81 2.89 2.89 0 0 1-.53 1.8 2 2 0 0 1-3 0 2.76 2.76 0 0 1-.53-1.8 2.85 2.85 0 0 1 .53-1.8 1.84 1.84 0 0 1 1.52-.68 1.82 1.82 0 0 1 1.44.67zm-2.43.42a2.6 2.6 0 0 0-.3 1.4 2.56 2.56 0 0 0 .3 1.39 1.17 1.17 0 0 0 1.84 0 3.39 3.39 0 0 0 0-2.79 1 1 0 0 0-.91-.46 1.07 1.07 0 0 0-.93.46zM93.11 45.6v6.66h-.67l-.07-.63a1.7 1.7 0 0 1-.6.54 1.56 1.56 0 0 1-.74.18 1.52 1.52 0 0 1-1.35-.65 3.09 3.09 0 0 1-.46-1.81 3.44 3.44 0 0 1 .23-1.28 2.08 2.08 0 0 1 .64-.88 1.7 1.7 0 0 1 2.26.25v-2.47zm-2.75 2.89a2.54 2.54 0 0 0-.32 1.4 2.74 2.74 0 0 0 .29 1.39 1 1 0 0 0 .85.47 1.41 1.41 0 0 0 1.17-.75v-2.36a1.47 1.47 0 0 0-.47-.46 1.29 1.29 0 0 0-.61-.16 1 1 0 0 0-.91.47zM95.67 50.88a1 1 0 0 0 .19.67.79.79 0 0 0 .61.21 1.35 1.35 0 0 0 .73-.22 1.58 1.58 0 0 0 .55-.54v-3.49h.76v4.75h-.65l-.06-.64a2 2 0 0 1-.69.54 1.9 1.9 0 0 1-.83.19 1.35 1.35 0 0 1-1-.36 1.43 1.43 0 0 1-.35-1v-3.48h.76zM102.16 51.09c0 .42.27.63.79.63a2.18 2.18 0 0 0 .79-.16l.2.55a2.39 2.39 0 0 1-1.13.24 1.44 1.44 0 0 1-1-.35 1.23 1.23 0 0 1-.38-1v-4.79H100v-.61h2.21zM106.72 51.33a1.31 1.31 0 0 0 1 .39 1.87 1.87 0 0 0 .64-.1 2.68 2.68 0 0 0 .63-.32l.35.51a2.75 2.75 0 0 1-.76.4 2.58 2.58 0 0 1-.86.14 2 2 0 0 1-1.6-.67 2.65 2.65 0 0 1-.57-1.79 3.25 3.25 0 0 1 .25-1.28 2.16 2.16 0 0 1 .72-.88 1.94 1.94 0 0 1 1.09-.32A1.75 1.75 0 0 1 109 48a2.61 2.61 0 0 1 .52 1.7v.41h-3.19a1.78 1.78 0 0 0 .39 1.22zm0-2.9a1.85 1.85 0 0 0-.39 1.14h2.47a1.86 1.86 0 0 0-.32-1.14 1.06 1.06 0 0 0-.87-.4 1.12 1.12 0 0 0-.91.4zM112.33 50.7a4.12 4.12 0 0 0 .62 1.24A8.12 8.12 0 0 0 114 53.1l-.38.42a8.63 8.63 0 0 1-1.29-1.26 4.62 4.62 0 0 1-.77-1.39 5.9 5.9 0 0 1 0-3.53 4.45 4.45 0 0 1 .77-1.38 7.76 7.76 0 0 1 1.29-1.26l.38.41a7.7 7.7 0 0 0-1.1 1.16 3.93 3.93 0 0 0-.61 1.23 5.47 5.47 0 0 0-.2 1.6 5.77 5.77 0 0 0 .24 1.6zM119.67 45.33c-.8 0-1.17.24-1.13.72l.18 1.85a1.42 1.42 0 0 1 0 .23 1 1 0 0 1-.2.66 1.08 1.08 0 0 1-.64.31 1.13 1.13 0 0 1 .64.31.9.9 0 0 1 .2.66 1.63 1.63 0 0 1 0 .24l-.18 1.85a.52.52 0 0 0 .27.55 1.85 1.85 0 0 0 .86.17v.6a2.69 2.69 0 0 1-1.32-.28 1 1 0 0 1-.52-.94v-.18l.19-1.71a1 1 0 0 0 0-.19.64.64 0 0 0-.3-.58 2.11 2.11 0 0 0-1.08-.19v-.61a2.11 2.11 0 0 0 1.08-.19.62.62 0 0 0 .28-.61.86.86 0 0 0 0-.17l-.19-1.72v-.18a1 1 0 0 1 .52-1 2.69 2.69 0 0 1 1.32-.28z"/></g></g><g class="b"><g class="b"><path class="c" d="M113.17 66.18h1.33v.61H111v-.61h1.45v-3.53H111V62h2.17zM113 60a.56.56 0 0 1 0 .76.55.55 0 0 1-.4.15.51.51 0 0 1-.39-.15.56.56 0 0 1 0-.76.51.51 0 0 1 .39-.15.55.55 0 0 1 .4.15zM120 62.23a1.56 1.56 0 0 1 .26 1v3.53h-.7v-3.38a2.5 2.5 0 0 0-.06-.67.28.28 0 0 0-.3-.17 1 1 0 0 0-.83.57v3.68h-.7v-3.41a2.39 2.39 0 0 0-.07-.67.28.28 0 0 0-.3-.17 1 1 0 0 0-.83.57v3.68h-.69V62h.58l.06.56a1.75 1.75 0 0 1 .45-.48.92.92 0 0 1 .57-.17.82.82 0 0 1 .86.63 1.48 1.48 0 0 1 .46-.47 1 1 0 0 1 .58-.16.84.84 0 0 1 .66.32zM125.41 64.41a3.12 3.12 0 0 1-.47 1.8 1.55 1.55 0 0 1-1.36.68 1.63 1.63 0 0 1-1.26-.54v2.26l-.75.09V62h.64l.07.67a1.87 1.87 0 0 1 .62-.57 1.67 1.67 0 0 1 .79-.19c1.15.09 1.72.86 1.72 2.5zm-2.56-1.64a2.47 2.47 0 0 0-.53.54v2.35a1.51 1.51 0 0 0 .47.44 1.33 1.33 0 0 0 .62.16 1 1 0 0 0 .89-.46 2.64 2.64 0 0 0 .29-1.39 2.93 2.93 0 0 0-.26-1.39.87.87 0 0 0-.82-.46 1.13 1.13 0 0 0-.66.21zM130.28 62.61a3.3 3.3 0 0 1 0 3.6 1.79 1.79 0 0 1-1.5.68 1.82 1.82 0 0 1-1.52-.67 3.3 3.3 0 0 1 0-3.6 1.82 1.82 0 0 1 1.52-.67 1.8 1.8 0 0 1 1.5.66zm-2.43.42a2.47 2.47 0 0 0-.31 1.39 2.56 2.56 0 0 0 .3 1.39 1.18 1.18 0 0 0 1.85 0 3.39 3.39 0 0 0 0-2.79 1.16 1.16 0 0 0-1.84 0zM136.24 62l-.11 1.62h-.61v-1h-.05c-.73 0-1.25.52-1.55 1.56v2h1v.59h-2.47v-.57h.75v-3.57h-.75V62h1.32l.14 1.13a2.34 2.34 0 0 1 .69-.92 1.64 1.64 0 0 1 1-.3 3 3 0 0 1 .64.09zM141 66.8a2.72 2.72 0 0 1-.69.09 1.61 1.61 0 0 1-1.17-.4 1.33 1.33 0 0 1-.42-1v-2.85h-1.09V62h1.09v-1l.75-.09V62h1.65l-.1.6h-1.55v2.81a.76.76 0 0 0 .22.61 1 1 0 0 0 .69.2 1.89 1.89 0 0 0 .91-.23l.3.51a1.88 1.88 0 0 1-.59.3zM145.64 66.06a.64.64 0 0 0 .32-.55.82.82 0 0 0-.08-.38.77.77 0 0 0-.33-.27 3.66 3.66 0 0 0-.74-.25 3.66 3.66 0 0 1-1.22-.5 1 1 0 0 1-.4-.87 1.09 1.09 0 0 1 .5-.94A2.15 2.15 0 0 1 145 62a2.9 2.9 0 0 1 1.73.52l-.34.52a2.44 2.44 0 0 0-.62-.32 2.19 2.19 0 0 0-.75-.11c-.68 0-1 .2-1 .62a.51.51 0 0 0 .11.35.91.91 0 0 0 .37.24 6.13 6.13 0 0 0 .77.24 3.09 3.09 0 0 1 1.15.53 1.14 1.14 0 0 1 .39.93 1.18 1.18 0 0 1-.58 1.07 2.7 2.7 0 0 1-1.41.35 2.76 2.76 0 0 1-1.86-.64l.43-.5a2.47 2.47 0 0 0 .65.38 2.28 2.28 0 0 0 .78.13 1.51 1.51 0 0 0 .82-.25zM149.84 62.4a.73.73 0 0 1 1.25.51.72.72 0 0 1-.21.52.72.72 0 0 1-1 0 .75.75 0 0 1-.2-.52.73.73 0 0 1 .16-.51zm0 3.24a.73.73 0 1 1 0 1 .73.73 0 0 1-.2-.52.77.77 0 0 1 .2-.48zM160.12 59.45h2.26v.65h-1.54v7.08h1.54v.64h-2.26z"/></g></g><g class="b"><g class="b"><path class="c" d="M134.34 79a.79.79 0 0 1 .57-.23.77.77 0 0 1 .56.23.79.79 0 0 1 .23.56.79.79 0 0 1-.79.8.8.8 0 0 1-.57-1.36zM139.74 79a.79.79 0 0 1 .56-.23.78.78 0 0 1 .57.23.79.79 0 0 1 .23.56.79.79 0 0 1-.8.8.8.8 0 0 1-.56-1.36zM145.14 79a.79.79 0 0 1 .57-.23.77.77 0 0 1 .56.23.79.79 0 0 1 .23.56.79.79 0 0 1-.79.8.8.8 0 0 1-.57-1.36z"/></g></g><g class="b"><g class="b"><path class="c" d="M136.75 87.69h-1.37v5h1.37v.62h-3.54v-.62h1.37v-5h-1.37v-.63h3.54zM142.67 88.73a2.21 2.21 0 0 1-.59.11h-.8a1.25 1.25 0 0 1 .83 1.19 1.53 1.53 0 0 1-.48 1.17 1.81 1.81 0 0 1-1.3.44 2.36 2.36 0 0 1-.71-.09.58.58 0 0 0-.18.2.63.63 0 0 0-.07.25c0 .27.21.41.63.41h.86a2 2 0 0 1 .85.17 1.46 1.46 0 0 1 .6.46 1.07 1.07 0 0 1 .22.66 1.19 1.19 0 0 1-.59 1.06 3.1 3.1 0 0 1-1.67.38 2.62 2.62 0 0 1-1.55-.35 1.26 1.26 0 0 1-.44-1.09h.72a1 1 0 0 0 .11.48.76.76 0 0 0 .4.26 2.81 2.81 0 0 0 .8.08 2.5 2.5 0 0 0 1.13-.19.64.64 0 0 0 .37-.59.56.56 0 0 0-.3-.5 1.45 1.45 0 0 0-.76-.17h-.85a1.35 1.35 0 0 1-.89-.26.79.79 0 0 1-.31-.64.88.88 0 0 1 .14-.45 1.25 1.25 0 0 1 .38-.38 1.43 1.43 0 0 1-.6-.53 1.66 1.66 0 0 1 0-1.63 1.59 1.59 0 0 1 .67-.58 2.17 2.17 0 0 1 1-.21 6.29 6.29 0 0 0 1.23-.09 5.06 5.06 0 0 0 .93-.31zm-3.22.54a1.08 1.08 0 0 0-.28.79 1.13 1.13 0 0 0 .28.81 1.1 1.1 0 0 0 .84.3 1 1 0 0 0 .77-.29 1.18 1.18 0 0 0 .27-.83 1 1 0 0 0-1.06-1.05 1.06 1.06 0 0 0-.82.27zM143.58 93.26l1.75-2.5-1.54-2.24h.9l1.1 1.76 1.11-1.76h.87l-1.54 2.2 1.77 2.54h-.92l-1.31-2-1.3 2zM149.53 92.54a3.78 3.78 0 0 1-.64-2.39 3.86 3.86 0 0 1 .36-1.74 2.61 2.61 0 0 1 .95-1.09 2.44 2.44 0 0 1 1.29-.36 2.58 2.58 0 0 1 1 .16 2.72 2.72 0 0 1 .78.52l-.47.49a2 2 0 0 0-.6-.39 1.88 1.88 0 0 0-.69-.12 1.56 1.56 0 0 0-1.26.6 3 3 0 0 0-.51 1.93 3.59 3.59 0 0 0 .41 1.94 1.4 1.4 0 0 0 1.24.61 2.33 2.33 0 0 0 1.18-.3v-1.88h-1.22l-.09-.65h2.09v2.95a5.1 5.1 0 0 1-.94.4 3.93 3.93 0 0 1-1.08.14 2.13 2.13 0 0 1-1.8-.82zM158.65 88.52l-.11 1.61h-.61v-1c-.74 0-1.26.52-1.56 1.57v2h1v.59h-2.46v-.59h.74v-3.6h-.74v-.58h1.31l.14 1.12a2.64 2.64 0 0 1 .69-.92 1.66 1.66 0 0 1 1-.3 2.47 2.47 0 0 1 .6.1zM162.58 92.66h1.34v.6h-3.55v-.6h1.46v-3.54h-1.42v-.6h2.17zm-.19-6.21a.52.52 0 0 1 .15.38.49.49 0 0 1-.15.38.58.58 0 0 1-.41.15.53.53 0 0 1-.39-.15.49.49 0 0 1-.15-.38.52.52 0 0 1 .15-.38.53.53 0 0 1 .39-.15.58.58 0 0 1 .41.15zM169.18 86.61v6.65h-.67l-.07-.62a1.7 1.7 0 0 1-.6.54 1.56 1.56 0 0 1-.74.18 1.53 1.53 0 0 1-1.35-.66 3.09 3.09 0 0 1-.46-1.81 3.38 3.38 0 0 1 .23-1.27 2 2 0 0 1 .64-.88 1.55 1.55 0 0 1 1-.32 1.59 1.59 0 0 1 1.27.56v-2.46zm-2.75 2.89a2.48 2.48 0 0 0-.32 1.39 2.72 2.72 0 0 0 .29 1.39.94.94 0 0 0 .85.47 1.41 1.41 0 0 0 1.17-.75v-2.36a1.34 1.34 0 0 0-.47-.45 1.18 1.18 0 0 0-.61-.16 1 1 0 0 0-.91.47zM175.21 93.26h-.76l-.18-3.26c0-.57-.06-1.32-.06-2.24l-1 4.36h-.79l-1.11-4.36V90l-.16 3.24h-.74l.35-6.2h1.09l1 4.25 1-4.25h1.1zM179.7 89.08a2.81 2.81 0 0 1 .52 1.8 2.87 2.87 0 0 1-.53 1.8 2 2 0 0 1-3 0 2.81 2.81 0 0 1-.53-1.81 2.85 2.85 0 0 1 .53-1.8 2.06 2.06 0 0 1 3 0zm-2.44.42a3.37 3.37 0 0 0 0 2.78 1.15 1.15 0 0 0 1.84 0 3.39 3.39 0 0 0 0-2.79 1 1 0 0 0-.91-.45 1 1 0 0 0-.93.46zM185.38 86.61v6.65h-.67l-.07-.62a1.7 1.7 0 0 1-.6.54 1.56 1.56 0 0 1-.74.18 1.53 1.53 0 0 1-1.3-.66 3.09 3.09 0 0 1-.46-1.81 3.38 3.38 0 0 1 .23-1.27 2 2 0 0 1 .64-.88 1.55 1.55 0 0 1 1-.32 1.59 1.59 0 0 1 1.27.56v-2.46zm-2.75 2.89a2.48 2.48 0 0 0-.32 1.39 2.72 2.72 0 0 0 .29 1.39.94.94 0 0 0 .85.47 1.41 1.41 0 0 0 1.17-.75v-2.36a1.34 1.34 0 0 0-.47-.45 1.18 1.18 0 0 0-.61-.16 1 1 0 0 0-.91.47zM187.94 91.88a1 1 0 0 0 .19.67.79.79 0 0 0 .61.21 1.43 1.43 0 0 0 .73-.21A1.77 1.77 0 0 0 190 92v-3.48h.76v4.74h-.65l-.06-.64a2 2 0 0 1-.69.54 1.91 1.91 0 0 1-.83.2 1.35 1.35 0 0 1-1-.36 1.45 1.45 0 0 1-.35-1v-3.48h.76zM194.43 92.09c0 .42.27.64.79.64a2.21 2.21 0 0 0 .79-.17l.2.55a2.28 2.28 0 0 1-1.13.25 1.49 1.49 0 0 1-1-.35 1.27 1.27 0 0 1-.38-1v-4.8h-1.46v-.6h2.21zM199 92.33a1.28 1.28 0 0 0 1 .4 1.87 1.87 0 0 0 .64-.11 2.34 2.34 0 0 0 .63-.32l.35.51a2.51 2.51 0 0 1-.76.4 2.6 2.6 0 0 1-.86.15 2 2 0 0 1-1.6-.67 2.7 2.7 0 0 1-.57-1.8 3.2 3.2 0 0 1 .25-1.27 2 2 0 0 1 .72-.88 1.86 1.86 0 0 1 1.09-.32 1.74 1.74 0 0 1 1.42.62 2.64 2.64 0 0 1 .52 1.71v.4h-3.19a1.76 1.76 0 0 0 .36 1.18zm0-2.9a1.85 1.85 0 0 0-.39 1.15h2.47a1.89 1.89 0 0 0-.33-1.15 1 1 0 0 0-.86-.39 1.14 1.14 0 0 0-.89.39z"/></g></g><g class="b"><g class="b"><path class="c" d="M135 105a.81.81 0 0 1 .57-.23.75.75 0 0 1 .56.23.79.79 0 0 1 .23.56.78.78 0 0 1-.23.57.75.75 0 0 1-.56.23.81.81 0 0 1-.57-.23.81.81 0 0 1 0-1.13zM140.43 105a.79.79 0 0 1 .57-.23.77.77 0 0 1 .56.23.79.79 0 0 1 .23.56.79.79 0 0 1-.79.8.79.79 0 0 1-.57-.23.84.84 0 0 1 0-1.13zM145.83 105a.79.79 0 0 1 .57-.23.77.77 0 0 1 .56.23.79.79 0 0 1 .23.56.79.79 0 0 1-.79.8.8.8 0 0 1-.57-1.36z"/></g></g><g class="b"><g class="b"><path class="c" d="M113.65 120.29h-2.26v-.64h1.54v-7.08h-1.54v-.65h2.26z"/></g></g><g class="b"><g class="b"><path class="c" d="M64.28 125a1 1 0 0 1 .52 1v.18l-.19 1.73a.45.45 0 0 0 0 .13.66.66 0 0 0 .32.6 2 2 0 0 0 1.06.2v.62a2.12 2.12 0 0 0-1.06.19.67.67 0 0 0-.32.61.62.62 0 0 0 0 .15l.19 1.71v.18a1 1 0 0 1-.52.94 2.69 2.69 0 0 1-1.32.28v-.6a1.86 1.86 0 0 0 .86-.16.54.54 0 0 0 .27-.56l-.18-1.85a1.3 1.3 0 0 1 0-.24.86.86 0 0 1 .22-.66 1.3 1.3 0 0 1 .73-.29 1.34 1.34 0 0 1-.71-.32.88.88 0 0 1-.23-.67 1.48 1.48 0 0 1 0-.23l.18-1.84c0-.48-.33-.72-1.13-.72v-.61a2.81 2.81 0 0 1 1.31.23zM70.3 127.47a3.93 3.93 0 0 0-.61-1.23 8.2 8.2 0 0 0-1.1-1.16l.38-.41a8.63 8.63 0 0 1 1.29 1.26 4.57 4.57 0 0 1 .77 1.38 6.12 6.12 0 0 1 0 3.53 4.62 4.62 0 0 1-.77 1.39 8.63 8.63 0 0 1-1.26 1.26l-.38-.42a7.62 7.62 0 0 0 1.09-1.16 4.19 4.19 0 0 0 .62-1.23 5.88 5.88 0 0 0 .2-1.6 5.54 5.54 0 0 0-.23-1.61z"/></g></g><g class="b"><g class="b"><path class="c" d="M63.53 144.35a1.31 1.31 0 0 0 1 .39 1.87 1.87 0 0 0 .64-.1 2.68 2.68 0 0 0 .63-.32l.35.5a2.42 2.42 0 0 1-.76.41 2.54 2.54 0 0 1-.86.14 2 2 0 0 1-1.6-.67 2.65 2.65 0 0 1-.57-1.79 3.25 3.25 0 0 1 .25-1.28 2.16 2.16 0 0 1 .72-.88 1.94 1.94 0 0 1 1.09-.32 1.73 1.73 0 0 1 1.42.63 2.54 2.54 0 0 1 .52 1.7v.41h-3.24a1.78 1.78 0 0 0 .41 1.18zm0-2.9a1.85 1.85 0 0 0-.39 1.14h2.47a1.86 1.86 0 0 0-.32-1.14 1.06 1.06 0 0 0-.87-.4 1.12 1.12 0 0 0-.91.4zM67.52 145.27l1.75-2.5-1.54-2.24h.9l1.1 1.77 1.11-1.77h.87l-1.54 2.21 1.75 2.53H71l-1.31-2-1.3 2zM77.16 142.9a3.12 3.12 0 0 1-.46 1.8 1.56 1.56 0 0 1-1.36.67 1.61 1.61 0 0 1-1.26-.54v2.26l-.76.09v-6.65H74l.06.67a1.79 1.79 0 0 1 .63-.57 1.62 1.62 0 0 1 .78-.2c1.12 0 1.69.83 1.69 2.47zm-2.56-1.64a2.06 2.06 0 0 0-.52.54v2.35a1.32 1.32 0 0 0 .47.44 1.29 1.29 0 0 0 .62.15 1 1 0 0 0 .88-.45 2.57 2.57 0 0 0 .29-1.39 2.85 2.85 0 0 0-.26-1.4.87.87 0 0 0-.81-.46 1.14 1.14 0 0 0-.67.22zM82 141.09a2.86 2.86 0 0 1 .52 1.81 2.78 2.78 0 0 1-.53 1.79 1.8 1.8 0 0 1-1.51.68 1.82 1.82 0 0 1-1.51-.66 2.76 2.76 0 0 1-.53-1.8 2.85 2.85 0 0 1 .53-1.8 1.84 1.84 0 0 1 1.52-.68 1.82 1.82 0 0 1 1.51.66zm-2.44.42a2.6 2.6 0 0 0-.3 1.4 2.56 2.56 0 0 0 .3 1.39 1.17 1.17 0 0 0 1.84 0 2.58 2.58 0 0 0 .3-1.4 2.54 2.54 0 0 0-.3-1.39 1 1 0 0 0-.91-.46 1.07 1.07 0 0 0-.89.46zM88 140.53l-.11 1.61h-.61v-1q-1.11 0-1.56 1.56v2h1v.58h-2.55v-.58h.74v-3.57h-.74v-.59h1.31l.14 1.13a2.44 2.44 0 0 1 .69-.92 1.6 1.6 0 0 1 1-.31 2.94 2.94 0 0 1 .69.09zM92.7 145.28a2.72 2.72 0 0 1-.69.09 1.69 1.69 0 0 1-1.17-.39 1.33 1.33 0 0 1-.42-1v-2.82h-1.09v-.6h1.09v-1.07l.76-.09v1.16h1.64l-.1.6h-1.54v2.81a.82.82 0 0 0 .21.61 1 1 0 0 0 .7.19 1.87 1.87 0 0 0 .9-.22l.3.51a1.87 1.87 0 0 1-.59.22zM103.7 144.31l.36.5a2.14 2.14 0 0 1-.73.41 2.69 2.69 0 0 1-.86.15 2.08 2.08 0 0 1-1.64-.66 2.58 2.58 0 0 1-.59-1.78 3.08 3.08 0 0 1 .26-1.28 2.1 2.1 0 0 1 .77-.89 2.16 2.16 0 0 1 1.2-.33 2.43 2.43 0 0 1 1.59.56l-.37.5a2.22 2.22 0 0 0-1.23-.42 1.27 1.27 0 0 0-1 .47 2.21 2.21 0 0 0-.38 1.39 2.07 2.07 0 0 0 .38 1.35 1.29 1.29 0 0 0 1 .45 2.12 2.12 0 0 0 1.24-.42zM107.57 144.1c0 .43.26.64.79.64a2.18 2.18 0 0 0 .79-.16l.2.55a2.39 2.39 0 0 1-1.13.24 1.44 1.44 0 0 1-1-.35 1.23 1.23 0 0 1-.38-1v-4.84h-1.46v-.61h2.21zM114.61 144.65a.51.51 0 0 0 .3.19l-.19.54a.92.92 0 0 1-.86-.67 1.64 1.64 0 0 1-.64.49 2 2 0 0 1-.85.17 1.56 1.56 0 0 1-1.12-.39 1.43 1.43 0 0 1-.41-1.06 1.3 1.3 0 0 1 .57-1.13 2.9 2.9 0 0 1 1.64-.4h.71V142a.87.87 0 0 0-.29-.73 1.4 1.4 0 0 0-.84-.22 3.59 3.59 0 0 0-1.23.25l-.21-.58a4.66 4.66 0 0 1 1.56-.3 1.93 1.93 0 0 1 1.32.41 1.43 1.43 0 0 1 .45 1.12v2.28a.73.73 0 0 0 .09.42zm-1.38 0a1.58 1.58 0 0 0 .53-.5v-1.21h-.69a1.85 1.85 0 0 0-1.09.25.87.87 0 0 0-.33.74.8.8 0 0 0 .91.9 1.35 1.35 0 0 0 .67-.2zM119 144.55a.64.64 0 0 0 .31-.55.87.87 0 0 0-.08-.39.9.9 0 0 0-.32-.27 4 4 0 0 0-.74-.24 3.83 3.83 0 0 1-1.23-.5 1 1 0 0 1-.39-.87 1.11 1.11 0 0 1 .49-.95 2.26 2.26 0 0 1 1.31-.35 3 3 0 0 1 1.73.52l-.35.53a2.15 2.15 0 0 0-.62-.32 2.09 2.09 0 0 0-.74-.12c-.69 0-1 .21-1 .63a.56.56 0 0 0 .11.35 1 1 0 0 0 .37.24c.17.06.43.15.77.24a3.14 3.14 0 0 1 1.16.53 1.29 1.29 0 0 1-.2 2 2.59 2.59 0 0 1-1.41.35 2.71 2.71 0 0 1-1.85-.64l.42-.49a2.13 2.13 0 0 0 .66.37 2 2 0 0 0 .77.14 1.63 1.63 0 0 0 .83-.21zM124.39 144.55a.65.65 0 0 0 .32-.55.87.87 0 0 0-.08-.39.79.79 0 0 0-.33-.27 3.63 3.63 0 0 0-.73-.24 3.73 3.73 0 0 1-1.23-.5 1 1 0 0 1-.39-.87 1.11 1.11 0 0 1 .49-.95 2.26 2.26 0 0 1 1.31-.35 2.94 2.94 0 0 1 1.72.52l-.34.53a2.29 2.29 0 0 0-.62-.32 2.11 2.11 0 0 0-.75-.12q-1 0-1 .63a.56.56 0 0 0 .11.35 1 1 0 0 0 .37.24c.17.06.43.15.77.24a3.14 3.14 0 0 1 1.16.53 1.29 1.29 0 0 1-.2 2 2.59 2.59 0 0 1-1.41.35 2.71 2.71 0 0 1-1.85-.64l.42-.49a2.13 2.13 0 0 0 .66.37 2 2 0 0 0 .77.14 1.59 1.59 0 0 0 .83-.21zM133.27 143.69l-.5 1.58H132l2-6.2h1l2 6.2h-.81l-.49-1.58zm2.25-.65l-1-3.3-1 3.3zM142 142.9a3 3 0 0 1-.47 1.8 1.53 1.53 0 0 1-1.35.67 1.61 1.61 0 0 1-1.26-.54v2.26l-.76.09v-6.65h.65l.06.67a1.71 1.71 0 0 1 .63-.57 1.62 1.62 0 0 1 .78-.2c1.11 0 1.72.83 1.72 2.47zm-2.56-1.64a2.06 2.06 0 0 0-.52.54v2.35a1.32 1.32 0 0 0 .47.44 1.28 1.28 0 0 0 .61.15 1 1 0 0 0 .89-.45 2.57 2.57 0 0 0 .29-1.39 2.85 2.85 0 0 0-.26-1.4.88.88 0 0 0-.82-.46 1.14 1.14 0 0 0-.7.22zM147.36 142.9a3 3 0 0 1-.47 1.8 1.53 1.53 0 0 1-1.35.67 1.61 1.61 0 0 1-1.26-.54v2.26l-.76.09v-6.65h.65l.06.67a1.71 1.71 0 0 1 .63-.57 1.62 1.62 0 0 1 .78-.2c1.15 0 1.72.83 1.72 2.47zm-2.56-1.64a1.92 1.92 0 0 0-.52.54v2.35a1.32 1.32 0 0 0 .47.44 1.28 1.28 0 0 0 .61.15 1 1 0 0 0 .89-.45 2.57 2.57 0 0 0 .29-1.39 2.85 2.85 0 0 0-.26-1.4.89.89 0 0 0-.82-.46 1.14 1.14 0 0 0-.66.22zM153.15 145.27h-.76l-.19-3.27v-2.24l-1 4.37h-.79l-1.11-4.37V142l-.16 3.24h-.74l.35-6.2h1.09l1 4.25 1-4.25h1.1zM157.64 141.09a3.35 3.35 0 0 1 0 3.6 1.8 1.8 0 0 1-1.51.68 1.82 1.82 0 0 1-1.51-.66 2.76 2.76 0 0 1-.53-1.8 2.8 2.8 0 0 1 .53-1.8 2 2 0 0 1 3 0zm-2.44.42a2.6 2.6 0 0 0-.3 1.4 2.56 2.56 0 0 0 .3 1.39 1.17 1.17 0 0 0 1.84 0 2.58 2.58 0 0 0 .3-1.4 2.54 2.54 0 0 0-.3-1.39 1 1 0 0 0-.91-.46 1.06 1.06 0 0 0-.93.46zM163.32 138.62v6.65h-.67l-.07-.62a1.7 1.7 0 0 1-.6.54 1.59 1.59 0 0 1-.74.18 1.54 1.54 0 0 1-1.35-.65 3.09 3.09 0 0 1-.46-1.81 3.44 3.44 0 0 1 .23-1.28 2.08 2.08 0 0 1 .64-.88 1.7 1.7 0 0 1 2.26.25v-2.47zm-2.75 2.89a2.52 2.52 0 0 0-.32 1.4 2.74 2.74 0 0 0 .29 1.39 1 1 0 0 0 .85.47 1.41 1.41 0 0 0 1.17-.75v-2.36a1.47 1.47 0 0 0-.47-.46 1.29 1.29 0 0 0-.61-.16 1 1 0 0 0-.91.47zM165.88 143.9a1 1 0 0 0 .19.67.79.79 0 0 0 .61.21 1.35 1.35 0 0 0 .73-.22 1.58 1.58 0 0 0 .59-.56v-3.49h.76v4.74h-.65l-.06-.63a2 2 0 0 1-.69.54 1.9 1.9 0 0 1-.83.19 1.35 1.35 0 0 1-1-.36 1.43 1.43 0 0 1-.35-1v-3.45h.76zM172.37 144.1c0 .43.26.64.79.64a2.18 2.18 0 0 0 .79-.16l.2.55a2.39 2.39 0 0 1-1.13.24 1.42 1.42 0 0 1-1-.35 1.23 1.23 0 0 1-.38-1v-4.84h-1.46v-.61h2.21zM176.93 144.35a1.31 1.31 0 0 0 1 .39 1.87 1.87 0 0 0 .64-.1 2.68 2.68 0 0 0 .63-.32l.35.5a2.53 2.53 0 0 1-.76.41 2.58 2.58 0 0 1-.86.14 2 2 0 0 1-1.6-.67 2.65 2.65 0 0 1-.57-1.79 3.08 3.08 0 0 1 .25-1.28 2.16 2.16 0 0 1 .72-.88 1.92 1.92 0 0 1 1.09-.32 1.75 1.75 0 0 1 1.42.63 2.6 2.6 0 0 1 .52 1.7v.41h-3.19a1.78 1.78 0 0 0 .36 1.18zm0-2.9a1.85 1.85 0 0 0-.39 1.14H179a1.86 1.86 0 0 0-.33-1.14 1 1 0 0 0-.86-.4 1.1 1.1 0 0 0-.9.4zM189.88 138.35c-.8 0-1.17.24-1.13.72l.18 1.85a1.42 1.42 0 0 1 0 .23 1 1 0 0 1-.2.66 1.08 1.08 0 0 1-.64.31 1.17 1.17 0 0 1 .64.31.9.9 0 0 1 .2.66 1.63 1.63 0 0 1 0 .24l-.18 1.85a.52.52 0 0 0 .27.55 1.85 1.85 0 0 0 .86.17v.6a2.76 2.76 0 0 1-1.33-.28 1 1 0 0 1-.51-.95.81.81 0 0 1 0-.17l.19-1.71a1 1 0 0 0 0-.19.64.64 0 0 0-.3-.58 2.13 2.13 0 0 0-1.08-.19v-.61a2.13 2.13 0 0 0 1.08-.19.62.62 0 0 0 .3-.58.86.86 0 0 0 0-.17l-.19-1.73a.87.87 0 0 1 0-.18 1 1 0 0 1 .51-.94 2.76 2.76 0 0 1 1.33-.28zM193.88 138a1 1 0 0 1 .52.94v.18l-.19 1.73a.53.53 0 0 0 0 .14.66.66 0 0 0 .32.6 2.1 2.1 0 0 0 1.06.2v.61a2.15 2.15 0 0 0-1.07.2.67.67 0 0 0-.31.61.66.66 0 0 0 0 .15l.19 1.71v.17a1 1 0 0 1-.52.95 2.69 2.69 0 0 1-1.32.28v-.6a1.85 1.85 0 0 0 .86-.17.5.5 0 0 0 .26-.55l-.18-1.85v-.24a.9.9 0 0 1 .22-.67 1.34 1.34 0 0 1 .73-.29 1.27 1.27 0 0 1-.71-.32.87.87 0 0 1-.23-.67v-.22l.18-1.85c0-.48-.32-.72-1.12-.72v-.6a2.69 2.69 0 0 1 1.31.28z"/></g></g></g><ellipse cx="85.04" cy="82.95" rx="84.5" ry="82.9" style="isolation:isolate" opacity=".05" fill="#3948a3"/><path class="e" d="M93.22 51.39c5.59 1.4 15.79 6.4 17.9 14.8 3.19 12.7-3.2 31.5 6.9 49.8 3.2 5.8-56.3 13.7-56.3 13.7l-11.3-64.4s14.4-14 17.3-14.9c6.1-2 14.5-1.8 25.5 1z"/><path class="f" d="M50.32 65.29c-2.1 5.2-7.2 35.8-1.4 43.1.6.8-3 2.2-2.3 6 .1.6 1.2 3.7 1.2 3.7l4.8 1.2 14.38-8.1-2.69-3.4H63a3.14 3.14 0 0 1-.89-2.6c.3-1.4-3.3-3.7-8.8-27.5-1.79-7-2.49-13.5-2.99-12.4z"/><path d="M55.92 106.89l4.3-1 1.7-.2a3 3 0 0 0 1 2l-3.3.2-3.9.8-4.7 2.7z" fill="#dbdac6" fill-rule="evenodd"/><path d="M61.92 111a12.61 12.61 0 0 0-6 1.7c-2.1 1.3-4.1 4.2-2.1 5.7a41.35 41.35 0 0 0 5 3s7.4.09 3.1-10.4z" fill="#c4d1e1" fill-rule="evenodd"/><path class="i" d="M53.72 118.49l2-.4s6.9-.6 7.9-.1 4.1 2.7 4.1 2.7l.6.6a3.19 3.19 0 0 1-3.6-.5c-2.1-1.5-2.3-.3-2.3-.3l.3 1.9v2.3l.29 1s.31.6.11.7a1.21 1.21 0 0 1-1.3.3l-2.1-3.6-.6 4a1.1 1.1 0 0 1-1 .6c-.6.2-.6 0-.6 0l-.3-1.2a1.61 1.61 0 0 1-.4.7 1.8 1.8 0 0 1-1.2.3l.2-4.2-1 2.2a1.33 1.33 0 0 1-1 .6c-.3.1-.6.1-.9.2z"/><path class="j" d="M89.42 102s-5 12.7-17 16c-2.1.6-3.4 2.8-2.3 3.5 1.3.9 3.1 1.1 6 1.1 6.3 0 14.8-1.9 20.7-7.7 8.8-8.5 11.5-12.3 10.6-16.6s-18 3.7-18 3.7z"/><path class="f" d="M109.42 62c2.6 4.2 4 10.9 4 20.5 0 7.4-6.5 19.6-7.4 23.4-.2.6-.6 3.3-.6 3.3l-7.1 7L84 106.51l4.4-6.7 1.3.2a22.2 22.2 0 0 0 .6-5.1c-.2-1.5 4-20.6 6-32.9 1.22-7.2 10.62-4.1 13.12-.01z"/><path class="e" d="M96.72 99.71l-4.2-1.3-1.7-.4a2.65 2.65 0 0 1-1.1 1.9l3.3.4 3.8 1.1 4.4 3.1z"/><path class="j" d="M73.32 118.11l-7.3-2s-2.1 2.7-1.7 3.5 0 4.8 0 4.8l3.5 3 2.9-1s.2-1.2-.8-1.4.6-.8 1.2-1.1 4.8-2.5 2.2-5.8z"/><path class="i" d="M85.1 52.47a2.63 2.63 0 0 1-1.6 3.4l-7.5 2.7A2.72 2.72 0 0 1 72.6 57l-4.9-13.9a2.63 2.63 0 0 1 1.6-3.4l7.5-2.7a2.64 2.64 0 0 1 3.41 1.6z"/><path class="j" d="M66.51 60A2.88 2.88 0 0 0 70 62l12.4-3.5a2.89 2.89 0 0 0 2-3.5l-5-18.4a2.88 2.88 0 0 0-3.5-2l-12.5 3.5a2.88 2.88 0 0 0-2 3.5z"/><path d="M62.41 45.39a8.68 8.68 0 0 1-2.7-2.3 4.47 4.47 0 0 1 .8-4c1.1-1.2 2.7 0 2.7 0s-1.8 1.9-1.8 2.4 1 3.9 1 3.9z" fill="#163f59" fill-rule="evenodd"/><path class="l" d="M82.91 44.49s-.11-7.6-1-9.6-1.5-3.3-4.11-2.8c-3.89.7-3.69 1.5-5.89.9s-6.2-2.5-7.5-2.5c-2 .1-4.8 1.5-4 5.2a3.75 3.75 0 0 1-.7 3.8c.2.3 1 .4 2.4.6 4 .8 6.1.6 8.5-.9s7-4.3 8.1-2.5 2.5 7.8 2.9 8.2 1 .11 1.3-.4z"/><path class="j" d="M80.61 51.09a.92.92 0 0 0 1.19.6l2.71-.7a.94.94 0 0 0 .6-1.2L83.71 45a.93.93 0 0 0-1.2-.6l-2.71.7a.93.93 0 0 0-.59 1.2zm-16.1 4.5a.93.93 0 0 0 1.2.6l2.7-.7a.93.93 0 0 0 .6-1.2l-1.4-4.9a.92.92 0 0 0-1.1-.7l-2.7.7a.93.93 0 0 0-.6 1.2z"/><path class="l" d="M82.21 46.49s2 7.3 2.7 9.7c.6 2.2 1 7.3-11.3 10.6-7.3 2-8.5-3.5-9-5.2a15.65 15.65 0 0 1 .6-6.8l.8 3a6.08 6.08 0 0 1 4.2-4.3c5.59-1.5 7.8 1.4 10.2.6 1.89-.5 2.39-4 1.8-7.6z"/><path class="j" d="M73.81 57.69l-3.9 1a1 1 0 0 1-1.2-.6l-.1-.6 5.6-1.5.2.6a.84.84 0 0 1-.4 1.1.14.14 0 0 0-.2 0z"/><path class="l" d="M13.12 131.29c1.8 4.9 32.8 22.9 43.2 21.9l31.4 1.5c26.7-3.2 39.3-44.7 39.3-44.7-1-10.4-27.3 4.7-36.7 9.4-14.8 7.4-24.2 7.7-24.2 7.7-9.9 1-21.5-6.6-33.9-6.9-13.9-.3-22 3.4-19.1 11.1z"/><path class="m" d="M81.35 126.27v-1.4l-54-.9v1.4l.2.2c.6 1.1 1.9 1.4 3.3 1.4l46.9.9c1.5 0 2.7-.2 3.4-1.3z"/><path d="M68.25 126.27l.2.2a1.56 1.56 0 0 0 .8.6l8.2.2c1.4 0 2.6-.1 3.2-1l.2-.2v-.6l-12.5-.2z" fill="#d8e5ed" fill-rule="evenodd"/><path fill="#879ba6" fill-rule="evenodd" d="M60.95 125.83l-26.9-.5v-.9l26.9.5v.9z"/><path d="M68 124.67L61.45 98a1.71 1.71 0 0 0-1.6-1.3L22 96a.92.92 0 0 0-1 .9v.3l6.5 26.6z" fill="#d9e1e4" fill-rule="evenodd"/><path class="m" d="M46.85 110.37a1.82 1.82 0 0 1-1.1 2.3 1.7 1.7 0 0 1-.7.1 3.42 3.42 0 0 1-3.1-2.5 1.82 1.82 0 0 1 1.1-2.3 1.7 1.7 0 0 1 .7-.1 3.32 3.32 0 0 1 3.1 2.5z"/><path class="j" d="M92.44 161.48c-3.7.6-6.6-3.7-6.6-3.7l-9.7-7.5 2-5.2 18.8 8.5c.06 0-.8 7.3-4.5 7.9z"/><path class="e" d="M85.84 157.58a10.88 10.88 0 0 0 .7 2.4c.7 2 1.6 2.7 2.5 2.9 3.6 1 6.2.5 14.8 2.2s11.3.4 13.8-3.5-.1-7.1-4.4-7.4c-6.1-.6-9.4.2-12.7-.3s-3.5-1.3-5.5-2.4-3.5 5.6-1.8 7.1c1.7 1.3-6.1 1.5-7.4-1z"/><path class="j" d="M87.64 161.38c3.6 1 6.2.6 14.8 2.2s11.3.4 13.8-3.5a4.65 4.65 0 0 0 .6-4.8c1.9 1.3 2.6 3.6.8 6.3-2.5 4-5.2 5.2-13.8 3.5s-11.3-1.1-14.8-2.2a3.24 3.24 0 0 1-2-1.8.86.86 0 0 0 .6.3zm-1.8-3.7v-.2c.1.1.1.2 0 .2z"/><path class="j" d="M104.62 160.62c.2.1.5-.4.6-1.1a21.62 21.62 0 0 1 1-4.4c.2-.7.2-1.4-.1-1.5s-.8.4-1 1.1a24.24 24.24 0 0 0-1 4.5 1.33 1.33 0 0 0 .5 1.4zm-2.8-.5c.4.1.6-.4.7-1.1a21.34 21.34 0 0 1 1-4.2c.2-.7.2-1.3-.1-1.3s-.8.5-1.1 1.2a21.34 21.34 0 0 0-1 4.2c.1.6.3 1.2.5 1.2zm-2.8 0c.3 0 .6-.5.7-1.3a36 36 0 0 1 1.2-4.4c.3-.6.3-1.2 0-1.2s-.9.6-1.2 1.2a30.09 30.09 0 0 0-1.1 4.3 1.55 1.55 0 0 0 .38 1.4z"/><path d="M91.82 149.09s-66.4-27.3-70.2-27.3c-12.8-.1-9.8 12.8-3.4 18.9 7.7 7.2 65.9 20.3 65.9 20.3z" fill="#323b31" fill-rule="evenodd"/><path class="j" d="M65.48 153.9l18.1-17.2-7.7-7.7-19.8 20.8 9.4 4.1z"/><path d="M61.68 140.4s46-42.3 49.2-43.5c10.5-4.3 17 7.3 16.7 11.4-.5 5.2-47.2 47.5-47.2 47.5z" fill="#3c463b" fill-rule="evenodd"/><path class="e" d="M34.48 155.27c-1 1-1.3 4-1.3 4s15.4 5.8 20.8 5.9a34.42 34.42 0 0 0 6.4-1.2c.4-.1 1.4-1.1 1.8-1.3.7-.2.9.5 1.5.3a23.07 23.07 0 0 0 2.8-1c3.2-6.9 2.2-10.3 2.2-10.3s-7.1 2-5.9.4c2.6-3.4-4.8-6.9-6.5-5.1-6.7 7.1-18.8 5.4-21.8 8.3z"/><path class="j" d="M33.58 156.67c4.8 1.9 14.7 5.7 16.6 5.9 8.1.6 13.7-2.3 17.5-4-.4 1.1-.8 2.2-1.3 3.3a19.58 19.58 0 0 1-2.8 1c-.6.2-.8-.5-1.5-.3-.4.1-1.4 1.2-1.8 1.3a34.42 34.42 0 0 1-6.4 1.2c-5.4-.1-20.8-5.9-20.8-5.9a11.08 11.08 0 0 1 .5-2.5zM44.43 152.17c-.2.2.5.6 1.3.7a44.44 44.44 0 0 1 5.2 1.5c.8.3 1.6.4 1.7.2s-.5-.9-1.3-1.2a23.77 23.77 0 0 0-5.2-1.5 2.49 2.49 0 0 0-1.7.3zm3.4-1.2c-.1.2.5.6 1.3.9a30.68 30.68 0 0 1 5 2c.8.4 1.5.6 1.6.2s-.5-1-1.3-1.3a30.24 30.24 0 0 0-5-1.9 1.54 1.54 0 0 0-1.6.13zm3.4-1.1c-.2.4.5.8 1.3 1.1a26.52 26.52 0 0 1 4.8 2.3c.8.5 1.5.6 1.6.3s-.4-1-1.2-1.5a30.16 30.16 0 0 0-4.8-2.3c-.8-.2-1.6-.2-1.7.1z"/><circle cx="166.5" cy="59.1" r="31.7" fill="#f44235"/><path class="j" d="M164.23 60.19h5.1l-2.6-6.2-2.5 6.2z"/><path d="M166.73 44.29l-14 5 2.1 18.5 11.9 6.6 11.9-6.6 2.1-18.5zm8.8 23h-3.3l-1.8-4.4H163l-1.8 4.4H158l8.7-19.7z" fill="#fff"/></svg>